<svg id="visual" viewBox="0 0 960 300" width="960" height="300" xmlns="http://www.w3.org/2000/svg" xmlns:xlink="http://www.w3.org/1999/xlink" version="1.1"><rect x="0" y="0" width="960" height="300" fill="#0d0a1b"></rect><path d="M0 157L13.3 152.8C26.7 148.7 53.3 140.3 80 140.3C106.7 140.3 133.3 148.7 160 151.5C186.7 154.3 213.3 151.7 240 148.5C266.7 145.3 293.3 141.7 320 144.5C346.7 147.3 373.3 156.7 400 158C426.7 159.3 453.3 152.7 480 152.5C506.7 152.3 533.3 158.7 560 162.2C586.7 165.7 613.3 166.3 640 166.7C666.7 167 693.3 167 720 164C746.7 161 773.3 155 800 151.7C826.7 148.3 853.3 147.7 880 146C906.7 144.3 933.3 141.7 946.7 140.3L960 139L960 301L946.7 301C933.3 301 906.7 301 880 301C853.3 301 826.7 301 800 301C773.3 301 746.7 301 720 301C693.3 301 666.7 301 640 301C613.3 301 586.7 301 560 301C533.3 301 506.7 301 480 301C453.3 301 426.7 301 400 301C373.3 301 346.7 301 320 301C293.3 301 266.7 301 240 301C213.3 301 186.7 301 160 301C133.3 301 106.7 301 80 301C53.3 301 26.7 301 13.3 301L0 301Z" fill="#ff9c00"></path><path d="M0 163L13.3 166.2C26.7 169.3 53.3 175.7 80 180.2C106.7 184.7 133.3 187.3 160 188.5C186.7 189.7 213.3 189.3 240 185.7C266.7 182 293.3 175 320 173.7C346.7 172.3 373.3 176.7 400 178.7C426.7 180.7 453.3 180.3 480 181.8C506.7 183.3 533.3 186.7 560 187.8C586.7 189 613.3 188 640 187.8C666.7 187.7 693.3 188.3 720 185.2C746.7 182 773.3 175 800 173.7C826.7 172.3 853.3 176.7 880 178.8C906.7 181 933.3 181 946.7 181L960 181L960 301L946.7 301C933.3 301 906.7 301 880 301C853.3 301 826.7 301 800 301C773.3 301 746.7 301 720 301C693.3 301 666.7 301 640 301C613.3 301 586.7 301 560 301C533.3 301 506.7 301 480 301C453.3 301 426.7 301 400 301C373.3 301 346.7 301 320 301C293.3 301 266.7 301 240 301C213.3 301 186.7 301 160 301C133.3 301 106.7 301 80 301C53.3 301 26.7 301 13.3 301L0 301Z" fill="#ff5f3b"></path><path d="M0 205L13.3 207.5C26.7 210 53.3 215 80 217.2C106.7 219.3 133.3 218.7 160 213.3C186.7 208 213.3 198 240 193.3C266.7 188.7 293.3 189.3 320 190.7C346.7 192 373.3 194 400 197.5C426.7 201 453.3 206 480 204.3C506.7 202.7 533.3 194.3 560 193.2C586.7 192 613.3 198 640 199.5C666.7 201 693.3 198 720 197C746.7 196 773.3 197 800 199.2C826.7 201.3 853.3 204.7 880 206.3C906.7 208 933.3 208 946.7 208L960 208L960 301L946.7 301C933.3 301 906.7 301 880 301C853.3 301 826.7 301 800 301C773.3 301 746.7 301 720 301C693.3 301 666.7 301 640 301C613.3 301 586.7 301 560 301C533.3 301 506.7 301 480 301C453.3 301 426.7 301 400 301C373.3 301 346.7 301 320 301C293.3 301 266.7 301 240 301C213.3 301 186.7 301 160 301C133.3 301 106.7 301 80 301C53.3 301 26.7 301 13.3 301L0 301Z" fill="#ff0069"></path><path d="M0 237L13.3 237.5C26.7 238 53.3 239 80 236.7C106.7 234.3 133.3 228.7 160 229C186.7 229.3 213.3 235.7 240 238.8C266.7 242 293.3 242 320 242.7C346.7 243.3 373.3 244.7 400 245.3C426.7 246 453.3 246 480 246.5C506.7 247 533.3 248 560 246C586.7 244 613.3 239 640 234.2C666.7 229.3 693.3 224.7 720 225.3C746.7 226 773.3 232 800 232.7C826.7 233.3 853.3 228.7 880 226.3C906.7 224 933.3 224 946.7 224L960 224L960 301L946.7 301C933.3 301 906.7 301 880 301C853.3 301 826.7 301 800 301C773.3 301 746.7 301 720 301C693.3 301 666.7 301 640 301C613.3 301 586.7 301 560 301C533.3 301 506.7 301 480 301C453.3 301 426.7 301 400 301C373.3 301 346.7 301 320 301C293.3 301 266.7 301 240 301C213.3 301 186.7 301 160 301C133.3 301 106.7 301 80 301C53.3 301 26.7 301 13.3 301L0 301Z" fill="#ce009b"></path><path d="M0 260L13.3 261.5C26.7 263 53.3 266 80 268C106.7 270 133.3 271 160 271.7C186.7 272.3 213.3 272.7 240 272.2C266.7 271.7 293.3 270.3 320 269.2C346.7 268 373.3 267 400 267.2C426.7 267.3 453.3 268.7 480 266.7C506.7 264.7 533.3 259.3 560 256.7C586.7 254 613.3 254 640 254.8C666.7 255.7 693.3 257.3 720 261.2C746.7 265 773.3 271 800 269.7C826.7 268.3 853.3 259.7 880 256.5C906.7 253.3 933.3 255.7 946.7 256.8L960 258L960 301L946.7 301C933.3 301 906.7 301 880 301C853.3 301 826.7 301 800 301C773.3 301 746.7 301 720 301C693.3 301 666.7 301 640 301C613.3 301 586.7 301 560 301C533.3 301 506.7 301 480 301C453.3 301 426.7 301 400 301C373.3 301 346.7 301 320 301C293.3 301 266.7 301 240 301C213.3 301 186.7 301 160 301C133.3 301 106.7 301 80 301C53.3 301 26.7 301 13.3 301L0 301Z" fill="#571fc8"></path></svg>