<svg id="visual" viewBox="0 0 450 900" width="450" height="900" xmlns="http://www.w3.org/2000/svg" xmlns:xlink="http://www.w3.org/1999/xlink" version="1.1"><path d="M133 0L115 90L138 180L114 270L142 360L138 450L140 540L119 630L126 720L127 810L143 900L0 900L0 810L0 720L0 630L0 540L0 450L0 360L0 270L0 180L0 90L0 0Z" fill="#7de2d1"></path><path d="M95 0L89 90L103 180L92 270L107 360L105 450L89 540L110 630L109 720L85 810L91 900L0 900L0 810L0 720L0 630L0 540L0 450L0 360L0 270L0 180L0 90L0 0Z" fill="#62b6a6"></path><path d="M66 0L60 90L70 180L66 270L71 360L76 450L67 540L75 630L57 720L73 810L64 900L0 900L0 810L0 720L0 630L0 540L0 450L0 360L0 270L0 180L0 90L0 0Z" fill="#488b7e"></path><path d="M38 0L38 90L27 180L31 270L47 360L33 450L39 540L28 630L38 720L35 810L41 900L0 900L0 810L0 720L0 630L0 540L0 450L0 360L0 270L0 180L0 90L0 0Z" fill="#2f6359"></path></svg>